<svg xmlns="http://www.w3.org/2000/svg" width="180" height="36" viewBox="0 0 180 36" fill="none"><path d="M0 2.46575C0 1.10395 1.10396 0 2.46575 0H23.4247C24.7865 0 25.8904 1.10396 25.8904 2.46575V9.80822C25.8904 11.17 24.7865 12.274 23.4247 12.274H2.46575C1.10396 12.274 0 11.17 0 9.80822V2.46575Z" fill="url(#paint0_linear_66_4938)"></path><path d="M16.9281 15.3562C18.1311 15.3562 18.8829 16.6754 18.2815 17.7307L10.6001 31.2085C9.97727 32.3012 8.40447 32.2528 7.84838 31.1237L6.42668 28.237C6.32774 28.0362 6.27211 27.8163 6.26348 27.5919L6.12941 24.1064C6.10935 23.585 5.83698 23.1072 5.40128 22.8289L2.48884 20.9689C2.30135 20.8492 2.14115 20.6904 2.01887 20.5031L0.261966 17.8126C-0.425238 16.7602 0.319732 15.3562 1.56532 15.3562L16.9281 15.3562Z" fill="url(#paint1_linear_66_4938)"></path><path d="M35.5603 27.5556V10.0036C35.5603 9.56622 35.5763 9.08622 35.6083 8.56355C35.6403 8.03022 35.731 7.50222 35.8803 6.97956C36.0297 6.45689 36.3017 5.98222 36.6963 5.55555C37.187 5.01155 37.715 4.63822 38.2803 4.43555C38.8563 4.22222 39.4217 4.10489 39.9763 4.08355C40.531 4.05155 41.0163 4.03556 41.4323 4.03556H43.5923V7.17155H41.5923C40.8563 7.17155 40.307 7.35822 39.9443 7.73155C39.5923 8.09422 39.4163 8.57422 39.4163 9.17155V27.5556H35.5603ZM32.7763 13.2996V10.2756H43.5923V13.2996H32.7763Z" fill="url(#paint2_linear_66_4938)"></path><path d="M46.2988 27.5556V4.03556H50.1548V27.5556H46.2988Z" fill="url(#paint3_linear_66_4938)"></path><path d="M62.1636 28.0356C60.4143 28.0356 58.8783 27.6569 57.5556 26.8996C56.2329 26.1422 55.1983 25.0916 54.4516 23.7476C53.7156 22.4036 53.3476 20.8569 53.3476 19.1076C53.3476 17.2196 53.7103 15.5822 54.4356 14.1956C55.1609 12.7982 56.1689 11.7156 57.4596 10.9476C58.7503 10.1796 60.2436 9.79556 61.9396 9.79556C63.7316 9.79556 65.2516 10.2169 66.4996 11.0596C67.7583 11.8916 68.6916 13.0702 69.2996 14.5956C69.9076 16.1209 70.1369 17.9182 69.9876 19.9876H66.1636V18.5796C66.1529 16.7022 65.8223 15.3316 65.1716 14.4676C64.5209 13.6036 63.4969 13.1716 62.0996 13.1716C60.5209 13.1716 59.3476 13.6622 58.5796 14.6436C57.8116 15.6142 57.4276 17.0382 57.4276 18.9156C57.4276 20.6649 57.8116 22.0196 58.5796 22.9796C59.3476 23.9396 60.4676 24.4196 61.9396 24.4196C62.8889 24.4196 63.7049 24.2116 64.3876 23.7956C65.0809 23.3689 65.6143 22.7556 65.9876 21.9556L69.7956 23.1076C69.1343 24.6649 68.1103 25.8756 66.7236 26.7396C65.3476 27.6036 63.8276 28.0356 62.1636 28.0356ZM56.2116 19.9876V17.0756H68.0996V19.9876H56.2116Z" fill="url(#paint4_linear_66_4938)"></path><path d="M70.3726 27.5556L76.6926 18.8196L70.5006 10.2756H75.0446L78.9326 15.7956L82.7566 10.2756H87.3006L81.1086 18.8196L87.4606 27.5556H82.9166L78.9326 21.8436L74.9166 27.5556H70.3726Z" fill="url(#paint5_linear_66_4938)"></path><path d="M97.6753 28.0356C95.99 28.0356 94.5767 27.6356 93.4353 26.8356C92.294 26.0356 91.4353 24.9476 90.8593 23.5716C90.2833 22.1849 89.9953 20.6329 89.9953 18.9156C89.9953 17.1769 90.2833 15.6196 90.8593 14.2436C91.4353 12.8676 92.278 11.7849 93.3873 10.9956C94.5073 10.1956 95.8887 9.79556 97.5313 9.79556C99.1633 9.79556 100.577 10.1956 101.771 10.9956C102.977 11.7849 103.91 12.8676 104.571 14.2436C105.233 15.6089 105.563 17.1662 105.563 18.9156C105.563 20.6436 105.238 22.1956 104.587 23.5716C103.937 24.9476 103.019 26.0356 101.835 26.8356C100.651 27.6356 99.2647 28.0356 97.6753 28.0356ZM89.3393 35.2356V10.2756H92.7473V22.4036H93.2273V35.2356H89.3393ZM97.0833 24.5796C98.086 24.5796 98.9127 24.3289 99.5633 23.8276C100.214 23.3262 100.694 22.6489 101.003 21.7956C101.323 20.9316 101.483 19.9716 101.483 18.9156C101.483 17.8702 101.323 16.9209 101.003 16.0676C100.683 15.2036 100.187 14.5209 99.5153 14.0196C98.8433 13.5076 97.99 13.2516 96.9553 13.2516C95.974 13.2516 95.174 13.4916 94.5553 13.9716C93.9367 14.4409 93.478 15.1022 93.1793 15.9556C92.8913 16.7982 92.7473 17.7849 92.7473 18.9156C92.7473 20.0356 92.8913 21.0222 93.1793 21.8756C93.478 22.7289 93.942 23.3956 94.5713 23.8756C95.2113 24.3449 96.0487 24.5796 97.0833 24.5796Z" fill="url(#paint6_linear_66_4938)"></path><path d="M108.45 27.5556V10.2756H111.858V14.4836L111.442 13.9396C111.655 13.3636 111.938 12.8409 112.29 12.3716C112.653 11.8916 113.085 11.4969 113.586 11.1876C114.013 10.8996 114.482 10.6756 114.994 10.5156C115.517 10.3449 116.05 10.2436 116.594 10.2116C117.138 10.1689 117.666 10.1902 118.178 10.2756V13.8756C117.666 13.7262 117.074 13.6782 116.402 13.7316C115.741 13.7849 115.143 13.9716 114.61 14.2916C114.077 14.5796 113.639 14.9476 113.298 15.3956C112.967 15.8436 112.722 16.3556 112.562 16.9316C112.402 17.4969 112.322 18.1102 112.322 18.7716V27.5556H108.45Z" fill="url(#paint7_linear_66_4938)"></path><path d="M120.911 7.65155V4.11556H124.767V7.65155H120.911ZM120.911 27.5556V10.2756H124.767V27.5556H120.911Z" fill="url(#paint8_linear_66_4938)"></path><path d="M136.424 28.0356C134.643 28.0356 133.123 27.6409 131.864 26.8516C130.605 26.0516 129.64 24.9636 128.968 23.5876C128.307 22.2116 127.971 20.6542 127.96 18.9156C127.971 17.1449 128.317 15.5769 129 14.2116C129.693 12.8356 130.675 11.7582 131.944 10.9796C133.213 10.1902 134.723 9.79556 136.472 9.79556C138.435 9.79556 140.093 10.2916 141.448 11.2836C142.813 12.2649 143.704 13.6089 144.12 15.3156L140.28 16.3556C139.981 15.4276 139.485 14.7076 138.792 14.1956C138.099 13.6729 137.309 13.4116 136.424 13.4116C135.421 13.4116 134.595 13.6516 133.944 14.1316C133.293 14.6009 132.813 15.2516 132.504 16.0836C132.195 16.9156 132.04 17.8596 132.04 18.9156C132.04 20.5582 132.408 21.8862 133.144 22.8996C133.88 23.9129 134.973 24.4196 136.424 24.4196C137.448 24.4196 138.253 24.1849 138.84 23.7156C139.437 23.2462 139.885 22.5689 140.184 21.6836L144.12 22.5636C143.587 24.3236 142.653 25.6782 141.32 26.6276C139.987 27.5662 138.355 28.0356 136.424 28.0356Z" fill="url(#paint9_linear_66_4938)"></path><path d="M154.074 28.0356C152.324 28.0356 150.788 27.6569 149.466 26.8996C148.143 26.1422 147.108 25.0916 146.362 23.7476C145.626 22.4036 145.258 20.8569 145.258 19.1076C145.258 17.2196 145.62 15.5822 146.346 14.1956C147.071 12.7982 148.079 11.7156 149.37 10.9476C150.66 10.1796 152.154 9.79556 153.85 9.79556C155.642 9.79556 157.162 10.2169 158.41 11.0596C159.668 11.8916 160.602 13.0702 161.21 14.5956C161.818 16.1209 162.047 17.9182 161.898 19.9876H158.074V18.5796C158.063 16.7022 157.732 15.3316 157.082 14.4676C156.431 13.6036 155.407 13.1716 154.01 13.1716C152.431 13.1716 151.258 13.6622 150.49 14.6436C149.722 15.6142 149.338 17.0382 149.338 18.9156C149.338 20.6649 149.722 22.0196 150.49 22.9796C151.258 23.9396 152.378 24.4196 153.85 24.4196C154.799 24.4196 155.615 24.2116 156.298 23.7956C156.991 23.3689 157.524 22.7556 157.898 21.9556L161.706 23.1076C161.044 24.6649 160.02 25.8756 158.634 26.7396C157.258 27.6036 155.738 28.0356 154.074 28.0356ZM148.122 19.9876V17.0756H160.01V19.9876H148.122Z" fill="url(#paint10_linear_66_4938)"></path><defs><linearGradient id="paint0_linear_66_4938" x1="1.50902e-08" y1="5.78422" x2="219" y2="35" gradientUnits="userSpaceOnUse"><stop stop-color="#9F398F"></stop><stop offset="1" stop-color="#BB71F2"></stop></linearGradient><linearGradient id="paint1_linear_66_4938" x1="1.50902e-08" y1="5.78422" x2="219" y2="35" gradientUnits="userSpaceOnUse"><stop stop-color="#9F398F"></stop><stop offset="1" stop-color="#BB71F2"></stop></linearGradient><linearGradient id="paint2_linear_66_4938" x1="1.50902e-08" y1="5.78422" x2="219" y2="35" gradientUnits="userSpaceOnUse"><stop stop-color="#9F398F"></stop><stop offset="1" stop-color="#BB71F2"></stop></linearGradient><linearGradient id="paint3_linear_66_4938" x1="1.50902e-08" y1="5.78422" x2="219" y2="35" gradientUnits="userSpaceOnUse"><stop stop-color="#9F398F"></stop><stop offset="1" stop-color="#BB71F2"></stop></linearGradient><linearGradient id="paint4_linear_66_4938" x1="1.50902e-08" y1="5.78422" x2="219" y2="35" gradientUnits="userSpaceOnUse"><stop stop-color="#9F398F"></stop><stop offset="1" stop-color="#BB71F2"></stop></linearGradient><linearGradient id="paint5_linear_66_4938" x1="1.50902e-08" y1="5.78422" x2="219" y2="35" gradientUnits="userSpaceOnUse"><stop stop-color="#9F398F"></stop><stop offset="1" stop-color="#BB71F2"></stop></linearGradient><linearGradient id="paint6_linear_66_4938" x1="1.50902e-08" y1="5.78422" x2="219" y2="35" gradientUnits="userSpaceOnUse"><stop stop-color="#9F398F"></stop><stop offset="1" stop-color="#BB71F2"></stop></linearGradient><linearGradient id="paint7_linear_66_4938" x1="1.50902e-08" y1="5.78422" x2="219" y2="35" gradientUnits="userSpaceOnUse"><stop stop-color="#9F398F"></stop><stop offset="1" stop-color="#BB71F2"></stop></linearGradient><linearGradient id="paint8_linear_66_4938" x1="1.50902e-08" y1="5.78422" x2="219" y2="35" gradientUnits="userSpaceOnUse"><stop stop-color="#9F398F"></stop><stop offset="1" stop-color="#BB71F2"></stop></linearGradient><linearGradient id="paint9_linear_66_4938" x1="1.50902e-08" y1="5.78422" x2="219" y2="35" gradientUnits="userSpaceOnUse"><stop stop-color="#9F398F"></stop><stop offset="1" stop-color="#BB71F2"></stop></linearGradient><linearGradient id="paint10_linear_66_4938" x1="1.50902e-08" y1="5.78422" x2="219" y2="35" gradientUnits="userSpaceOnUse"><stop stop-color="#9F398F"></stop><stop offset="1" stop-color="#BB71F2"></stop></linearGradient></defs></svg>